<?xml version="1.0" encoding="utf-8"?>
<!-- Generator: Adobe Illustrator 18.0.0, SVG Export Plug-In . SVG Version: 6.00 Build 0)  -->
<!DOCTYPE svg PUBLIC "-//W3C//DTD SVG 1.1//EN" "http://www.w3.org/Graphics/SVG/1.1/DTD/svg11.dtd">
<svg version="1.1" id="Calque_1" xmlns="http://www.w3.org/2000/svg" xmlns:xlink="http://www.w3.org/1999/xlink" x="0px" y="0px"
	 viewBox="0 0 153.3 124.1" enable-background="new 0 0 153.3 124.1" xml:space="preserve">
<path fill="none" d="M88,79c-0.4-1.7-0.7-3.4-1-5c0.1,1.1,0.2,2.2,0.4,3.3C87.6,77.9,87.8,78.5,88,79z"/>
<path fill="#3498DB" d="M117.6,22.1c-0.2-0.7-0.5-1.4-1-1.8c-0.6-0.4-1.3-0.3-2-0.3c-4.7,0-9.3-2.8-11.5-7c-4-2.3-9.1-2.2-13.1,0
	c-4,2.2-7,6-8.8,10.2c-1.8,4.1-2.3,8.8-5.1,12.4c-4.2,5.2-10.3,8.9-13.3,14.9c-1.9,3.7-2.4,7.9-4.1,11.6c-2.2,5-6.3,8.9-8.8,13.7
	c-4.4,8.3-3.7,18.2-2.9,27.6c-3.7-0.6-6.7-3.1-9.3-5.8c-1.6-1.8-3.1-3.7-4-5.9c-1-2.6-1-5.4-1-8.2c0-1.4,0-2.9,0.4-4.3
	c1.2-3.4,4.8-5.2,6.7-8.3c0.2-0.4,0.4-0.8,0.4-1.2c-0.1-0.8-0.9-1.3-1.7-1.3c-0.8,0-1.5,0.4-2.1,0.8c-5,3.3-8.8,8.4-10.4,14.2
	c-1.6,5.8-1,12.1,1.6,17.5c2,4.1,5.3,7.7,9.5,9.4c3.4,1.3,7.1,1.3,10.7,0.8c0.6-0.1,1.6,0.2,1.4,0.8l15-2.5c-0.2-0.9,0.7-2,1.4-2.9
	c2.2-2.5,2.4-6.2,1.9-9.5c-1.1-7.7-3.3-17.4,2.8-23.8c0.7-0.7,1.5-1.4,2.1-2.1c0.6-0.8,1-1.8,0.8-2.8c-0.3-1.2-1.4-2-2.6-2.4
	c-1.2-0.4-2.4-0.5-3.6-0.8c-0.9-0.3-1.8-0.8-2.1-1.7c-0.2-0.6-0.2-1.2-0.1-1.9c0.1-0.9,0.2-1.7,0.3-2.6c0-0.4,0.1-0.8,0.2-1.1
	c0.6-1.3,2.2-1.5,3.3-2.4c0.5-0.4,0.8-0.9,1.2-1.3c1.1-0.9,2.6-1,4-0.9c0.7,0,1.5,0.1,2.2-0.1c2-0.5,3.2-2.4,4.3-4.2
	c0.9,0,1.2,1.2,1.3,2.1c0.1,1.6,0.2,3.2,0.1,4.8c0,0.7,0,1.3,0.1,2c0.2,0.7,0.5,1.4,0.9,2.1c0.7,1.3,1.4,2.7,2,4.1
	c0.9,2,1.8,4.1,2.2,6.3c0.2,1.2,0.3,2.4,0.4,3.6c0.3,1.7,0.6,3.4,1,5c0.3,0.9,0.7,1.9,1.1,2.8c2,4.5,3.6,9.1,5.2,13.8
	c0.9,2.7,1.8,5.4,2.8,8c0.7,0.1,1.4,0.1,2.1,0c1.8-0.3,3.4-1.3,5-2.3c0.3-1.5-0.5-3.1-1.9-3.9c-0.7-0.4-1.5-0.5-2.1-1
	c-0.8-0.7-1-1.7-1.2-2.8c-2.5-14.3-3.2-29.4-2-43.9c0,0.4,0,0.8,0,1.1c0.7-2.8-0.1-6-2.2-8.1c2.3,0.7,5-0.1,6.6-1.9
	c1.6-1.8,2.1-4.5,1.3-6.8c3.2-0.3,6.3-0.6,9.5-0.8c-0.9-0.5-1.7-1.1-2.6-1.6c2.9,0.1,6.4,0,8-2.4C119,27.2,118.3,24.4,117.6,22.1z"
	/>
<path fill="#FFFFFF" d="M88.8,82.7c-0.3-1.2-0.6-2.4-0.8-3.6c-0.2-0.6-0.4-1.2-0.5-1.8c-0.3-1.1-0.4-2.2-0.4-3.3
	c-0.1-0.6-0.3-1.3-0.4-1.9C85.9,75.7,87.5,79.1,88.8,82.7z"/>
<path fill="#FFFFFF" d="M88.8,82.7c0.4,2,0.9,4,1.4,6C90.1,86.6,89.5,84.6,88.8,82.7z"/>
</svg>
