<?xml version="1.0" encoding="UTF-8" standalone="no"?>
<svg
   xmlns:dc="http://purl.org/dc/elements/1.1/"
   xmlns:cc="http://creativecommons.org/ns#"
   xmlns:rdf="http://www.w3.org/1999/02/22-rdf-syntax-ns#"
   xmlns:svg="http://www.w3.org/2000/svg"
   xmlns="http://www.w3.org/2000/svg"
   xmlns:sodipodi="http://sodipodi.sourceforge.net/DTD/sodipodi-0.dtd"
   xmlns:inkscape="http://www.inkscape.org/namespaces/inkscape"
   version="1.1"
   overflow="visible"
   viewBox="0 0 73.727165 54.039421"
   x="0px"
   y="0px"
   id="svg2"
   inkscape:version="0.91 r13725"
   sodipodi:docname="cat.svg"
   width="73.727165"
   height="54.039421"
   style="overflow:visible;fill-rule:evenodd;stroke-width:0.50099999;stroke-linejoin:bevel">
  <metadata
     id="metadata20">
    <rdf:RDF>
      <cc:Work
         rdf:about="">
        <dc:format>image/svg+xml</dc:format>
        <dc:type
           rdf:resource="http://purl.org/dc/dcmitype/StillImage" />
        <dc:title></dc:title>
      </cc:Work>
    </rdf:RDF>
  </metadata>
  <defs
     id="defs18" />
  <sodipodi:namedview
     pagecolor="#ffffff"
     bordercolor="#666666"
     borderopacity="1"
     objecttolerance="10"
     gridtolerance="10"
     guidetolerance="10"
     inkscape:pageopacity="0"
     inkscape:pageshadow="2"
     inkscape:window-width="640"
     inkscape:window-height="480"
     id="namedview16"
     showgrid="false"
     inkscape:showpageshadow="true"
     fit-margin-top="0"
     fit-margin-left="0"
     fit-margin-right="0"
     fit-margin-bottom="0"
     inkscape:zoom="2.5173333"
     inkscape:cx="36.863539"
     inkscape:cy="17.644741"
     inkscape:window-x="234"
     inkscape:window-y="167"
     inkscape:window-maximized="0"
     inkscape:current-layer="svg2" />
  <g
     font-size="16"
     transform="matrix(1,0,0,-1,-0.63646084,-10.480321)"
     id="g4"
     style="font-size:16px;font-family:'Times New Roman';fill:none;stroke:#000000">
    <g
       transform="translate(0,-75)"
       id="g6">
      <g
         id="g8">
        <path
           d="m 63.841,16.701 c 3.803,3.179 6.903,7.702 9.218,13.443 1.936,4.782 1.883,13.876 -1.286,19.282 -3.605,6.146 -11.324,11.154 -20.648,13.393 -5.761,1.391 -11.11,1.92 -16.351,1.619 -7.19,-0.41 -12.7,-1.592 -17.338,-3.721 C 12.432,58.416 0.778,51.683 0.638,38.898 0.555,31.649 3.835,24.259 8.992,20.07 c 0.015,-0.012 0.032,-0.027 0.046,-0.041 8.748,-8.839 25.175,-7.468 31.833,-6.468 0.483,0.076 0.915,0.09 1.373,0.107 0.23,0.007 0.479,0.018 0.74,0.035 0.156,1.481 0.668,2.588 1.534,3.284 1.657,1.33 4.175,0.942 6.427,0.568 0.424,1.039 0.364,2 -0.166,2.656 -0.645,0.797 -1.864,1.021 -3.346,0.611 -1.229,-0.348 -3.199,-0.853 -5.034,-1.226 -1.105,-0.227 -2.657,-0.505 -3.774,-0.533 -3.108,-0.06 -7.189,0.226 -10.395,0.725 -3.664,0.567 -10.228,2.627 -13.025,5.019 -4.677,3.992 -6.231,7.909 -7.127,12.561 -0.059,0.307 0.142,0.605 0.449,0.665 0.306,0.063 0.605,-0.142 0.665,-0.451 0.85,-4.418 2.323,-8.134 6.749,-11.912 2.603,-2.227 9.021,-4.229 12.463,-4.762 3.147,-0.489 7.147,-0.769 10.197,-0.711 0.734,0.017 1.82,0.169 3.136,0.427 0.02,1.247 -0.257,2.12 -0.846,2.687 -0.991,0.954 -2.93,1.22 -6.293,0.857 -2.745,-0.294 -9.926,0.865 -11.847,2.132 -0.212,0.141 -0.306,0.408 -0.225,0.65 0.125,0.382 0.339,0.697 0.547,1.002 0.325,0.481 0.607,0.897 0.595,1.563 -0.023,1.46 -0.245,2.027 -0.527,2.743 -0.119,0.308 -0.252,0.646 -0.383,1.081 -0.039,0.023 -0.075,0.049 -0.109,0.079 -0.2,0.173 -0.304,0.44 -0.304,0.792 0,0.313 0.255,0.567 0.567,0.567 0.281,0 0.513,-0.202 0.559,-0.47 0.14,-0.069 0.25,-0.198 0.292,-0.359 0.142,-0.531 0.29,-0.909 0.435,-1.276 0.31,-0.791 0.578,-1.474 0.604,-3.14 0.018,-1.023 -0.43,-1.684 -0.792,-2.216 -0.071,-0.106 -0.139,-0.206 -0.199,-0.303 1.719,-0.785 5.98,-1.595 8.868,-1.738 -0.665,0.858 -1.241,1.84 -1.695,2.9 -0.066,-0.039 -0.141,-0.066 -0.222,-0.075 -0.5,-0.057 -1.013,-0.095 -1.53,-0.131 -0.667,-0.05 -1.355,-0.1 -2.015,-0.193 -0.026,-0.004 -0.054,-0.005 -0.079,-0.005 -0.279,0 -0.522,0.205 -0.561,0.488 -0.044,0.31 0.173,0.597 0.483,0.641 0.697,0.097 1.405,0.148 2.089,0.198 0.486,0.036 0.966,0.073 1.436,0.123 -0.113,0.338 -0.214,0.682 -0.3,1.029 -0.427,0.01 -0.838,0.055 -1.238,0.104 -0.694,0.085 -1.349,0.167 -1.992,0.016 -0.306,-0.07 -0.61,0.12 -0.681,0.425 -0.07,0.305 0.12,0.609 0.424,0.68 0.84,0.195 1.627,0.099 2.388,0.004 0.3,-0.037 0.59,-0.066 0.879,-0.084 -0.348,2.316 -0.049,4.741 1.227,6.878 1.476,2.475 3.81,4.951 5.898,7.048 0.424,0.486 1.045,1.421 1.764,2.501 2.094,3.144 4.695,7.061 6.98,6.73 0.03,-0.004 0.061,-0.011 0.09,-0.021 1.722,-0.545 2.039,-2.573 2.376,-4.72 0.166,-1.061 0.336,-2.154 0.68,-3.076 2.101,0.07 4.473,-0.621 6.765,-1.295 1.549,-0.456 3.018,-0.887 4.308,-1.055 0.365,0.324 0.925,0.935 1.512,1.576 2.096,2.287 3.676,3.91 4.864,3.91 0.011,0 0.023,0 0.033,0 2.339,-0.055 2.671,-3.208 2.913,-5.51 0.044,-0.419 0.085,-0.808 0.136,-1.14 0.22,-1.589 0.261,-3.184 0.299,-4.726 0.017,-0.635 0.033,-1.272 0.062,-1.908 0.013,-0.313 -0.228,-0.578 -0.542,-0.592 -0.331,-0.028 -0.577,0.229 -0.591,0.541 -0.029,0.644 -0.045,1.288 -0.061,1.93 -0.04,1.511 -0.08,3.074 -0.29,4.593 -0.05,0.34 -0.094,0.747 -0.14,1.184 -0.199,1.883 -0.47,4.463 -1.813,4.494 -0.004,0 -0.007,0 -0.01,0 -0.779,0 -2.889,-2.302 -4.025,-3.542 -0.785,-0.856 -1.405,-1.534 -1.832,-1.854 -0.115,-0.087 -0.257,-0.126 -0.401,-0.111 -1.447,0.154 -3.048,0.625 -4.742,1.122 -2.345,0.69 -4.771,1.399 -6.765,1.228 -0.237,-0.02 -0.468,0.112 -0.567,0.332 -0.508,1.126 -0.714,2.447 -0.914,3.724 -0.276,1.764 -0.537,3.433 -1.552,3.799 -1.573,0.154 -4.236,-3.847 -5.829,-6.241 -0.741,-1.114 -1.381,-2.076 -1.88,-2.647 -2.064,-2.073 -4.339,-4.485 -5.753,-6.855 -2.383,-3.988 -0.958,-9.146 1.68,-12.18 0.064,-0.073 0.098,-0.157 0.118,-0.245 0.145,0.007 0.287,0.015 0.413,0.029 3.779,0.405 5.931,0.057 7.202,-1.168 0.787,-0.76 1.179,-1.837 1.193,-3.274 1.592,0.344 3.199,0.759 4.256,1.06 1.941,0.535 3.593,0.173 4.534,-0.992 0.757,-0.936 0.898,-2.225 0.426,-3.55 0.402,-0.061 0.79,-0.113 1.135,-0.132 1.066,-0.055 2.532,0.39 3.018,0.933 0.208,0.231 0.566,0.251 0.8,0.043 0.234,-0.21 0.253,-0.568 0.043,-0.801 -0.809,-0.903 -2.667,-1.379 -3.924,-1.307 -0.606,0.032 -1.268,0.142 -1.971,0.256 l -0.286,0.048 c -2.053,0.342 -4.378,0.731 -5.673,-0.31 -0.694,-0.557 -1.067,-1.5 -1.148,-2.873 0.309,-0.986 0.597,-1.729 1.279,-2.204 0.598,-0.416 1.985,-0.809 5.199,-0.313 4.684,0.709 9.649,2.947 13.282,5.989 M 41.257,31.312 c -0.729,-0.461 -1.616,-0.693 -2.521,-0.693 -0.854,0 -1.723,0.207 -2.488,0.622 -1.237,0.671 -1.957,1.786 -1.974,3.059 -0.005,0.314 0.245,0.57 0.559,0.575 0.317,-0.005 0.57,-0.246 0.575,-0.558 0.015,-1.167 0.871,-1.804 1.38,-2.08 1.208,-0.655 2.797,-0.642 3.865,0.034 0.263,0.168 0.613,0.088 0.782,-0.177 0.166,-0.264 0.088,-0.615 -0.178,-0.782 m 6.282,-4.539 c -1.232,-1.444 -4.452,-0.303 -4.8,0.998 -0.098,0.385 0.045,0.786 0.567,1.141 1.474,1.005 5.465,-0.756 4.233,-2.139 m 14.58,-5.226 c 0.241,-0.202 0.273,-0.559 0.072,-0.8 -0.112,-0.134 -0.273,-0.203 -0.435,-0.203 -0.128,0 -0.258,0.044 -0.363,0.133 -0.911,0.76 -2.696,1.559 -5.308,2.373 -0.299,0.093 -0.466,0.411 -0.372,0.708 0.093,0.3 0.41,0.468 0.709,0.374 2.795,-0.871 4.658,-1.716 5.697,-2.585 m -10.31,7.849 c -0.008,0.313 0.24,0.573 0.553,0.581 0.305,-0.014 0.572,-0.239 0.581,-0.552 0.025,-1.023 0.797,-1.567 1.439,-1.842 1.596,-0.687 3.913,-0.389 5.058,0.645 0.233,0.211 0.592,0.192 0.801,-0.039 0.21,-0.233 0.192,-0.591 -0.041,-0.802 -0.945,-0.853 -2.4,-1.315 -3.857,-1.315 -0.835,0 -1.67,0.152 -2.408,0.468 -1.339,0.575 -2.095,1.59 -2.126,2.856 m 2.947,-7.951 c -0.292,0.113 -0.437,0.442 -0.323,0.733 0.112,0.292 0.442,0.438 0.732,0.324 1.588,-0.613 3.845,-2.039 5.141,-3.244 0.229,-0.212 0.241,-0.571 0.029,-0.8 -0.112,-0.121 -0.265,-0.181 -0.415,-0.181 -0.139,0 -0.277,0.05 -0.387,0.153 -1.185,1.102 -3.328,2.455 -4.777,3.015 z"
           stroke-miterlimit="79.8403193612775"
           id="path10"
           inkscape:connector-curvature="0"
           style="fill:#000000;stroke:none;stroke-width:0.75599998;stroke-linejoin:miter;stroke-miterlimit:79.84031677;marker-start:none;marker-end:none" />
      </g>
    </g>
  </g>
</svg>
