<?xml version="1.0" encoding="UTF-8" standalone="no"?>
<svg
   xmlns:dc="http://purl.org/dc/elements/1.1/"
   xmlns:cc="http://creativecommons.org/ns#"
   xmlns:rdf="http://www.w3.org/1999/02/22-rdf-syntax-ns#"
   xmlns:svg="http://www.w3.org/2000/svg"
   xmlns="http://www.w3.org/2000/svg"
   xmlns:sodipodi="http://sodipodi.sourceforge.net/DTD/sodipodi-0.dtd"
   xmlns:inkscape="http://www.inkscape.org/namespaces/inkscape"
   version="1.1"
   x="0px"
   y="0px"
   viewBox="0 0 63 83"
   xml:space="preserve"
   id="svg2"
   inkscape:version="0.91 r13725"
   sodipodi:docname="icon-health.svg"
   width="63"
   height="83"><metadata
     id="metadata14"><rdf:RDF><cc:Work
         rdf:about=""><dc:format>image/svg+xml</dc:format><dc:type
           rdf:resource="http://purl.org/dc/dcmitype/StillImage" /><dc:title></dc:title></cc:Work></rdf:RDF></metadata><defs
     id="defs12" /><sodipodi:namedview
     pagecolor="#ffffff"
     bordercolor="#666666"
     borderopacity="1"
     objecttolerance="10"
     gridtolerance="10"
     guidetolerance="10"
     inkscape:pageopacity="0"
     inkscape:pageshadow="2"
     inkscape:window-width="640"
     inkscape:window-height="480"
     id="namedview10"
     showgrid="false"
     fit-margin-top="0"
     fit-margin-left="0"
     fit-margin-right="0"
     fit-margin-bottom="0"
     inkscape:zoom="1.888"
     inkscape:cx="31.5"
     inkscape:cy="29"
     inkscape:window-x="0"
     inkscape:window-y="0"
     inkscape:window-maximized="0"
     inkscape:current-layer="svg2" /><path
     d="M 53.5,0 9.5,0 C 4.3,0 0,4.3 0,9.5 l 0,64 C 0,78.7 4.3,83 9.5,83 l 44,0 c 5.2,0 9.5,-4.3 9.5,-9.5 l 0,-64 C 63,4.3 58.7,0 53.5,0 Z M 60,73.5 c 0,3.6 -2.9,6.5 -6.5,6.5 l -44,0 C 5.9,80 3,77.1 3,73.5 L 3,9.5 C 3,5.9 5.9,3 9.5,3 l 44,0 C 57.1,3 60,5.9 60,9.5 l 0,64 z M 15.5,49.5 C 15.5,48.7 16.2,48 17,48 l 35,0 c 0.8,0 1.5,0.7 1.5,1.5 0,0.8 -0.7,1.5 -1.5,1.5 l -35,0 c -0.8,0 -1.5,-0.7 -1.5,-1.5 z m 0,7.3 c 0,-0.8 0.7,-1.5 1.5,-1.5 l 35,0 c 0.8,0 1.5,0.7 1.5,1.5 0,0.8 -0.7,1.5 -1.5,1.5 l -35,0 c -0.8,0 -1.5,-0.6 -1.5,-1.5 z m 23,14.7 c 0,0.8 -0.7,1.5 -1.5,1.5 l -20,0 c -0.8,0 -1.5,-0.7 -1.5,-1.5 0,-0.8 0.7,-1.5 1.5,-1.5 l 20,0 c 0.8,0 1.5,0.7 1.5,1.5 z m 13.5,-5.8 -35,0 c -0.8,0 -1.5,-0.7 -1.5,-1.5 0,-0.8 0.7,-1.5 1.5,-1.5 l 35,0 c 0.8,0 1.5,0.7 1.5,1.5 0,0.8 -0.7,1.5 -1.5,1.5 z m -24,-33.9 -9,0 0,-7 9,0 0,-9 7,0 0,9 9,0 0,7 -9,0 0,9 -7,0 0,-9 z M 14.5,49.5 c 0,0.8 -0.7,1.5 -1.5,1.5 -0.8,0 -1.5,-0.7 -1.5,-1.5 0,-0.8 0.7,-1.5 1.5,-1.5 0.8,0 1.5,0.7 1.5,1.5 z m 0,14.7 c 0,0.8 -0.7,1.5 -1.5,1.5 -0.8,0 -1.5,-0.7 -1.5,-1.5 0,-0.8 0.7,-1.5 1.5,-1.5 0.8,0 1.5,0.6 1.5,1.5 z m 0,7.3 c 0,0.8 -0.7,1.5 -1.5,1.5 -0.8,0 -1.5,-0.7 -1.5,-1.5 0,-0.8 0.7,-1.5 1.5,-1.5 0.8,0 1.5,0.7 1.5,1.5 z m 0,-14.7 c 0,0.8 -0.7,1.5 -1.5,1.5 -0.8,0 -1.5,-0.6 -1.5,-1.5 0,-0.9 0.7,-1.5 1.5,-1.5 0.8,0 1.5,0.7 1.5,1.5 z M 55,71.5 C 55,72.3 54.3,73 53.5,73 52.7,73 52,72.3 52,71.5 52,70.7 52.7,70 53.5,70 c 0.8,0 1.5,0.7 1.5,1.5 z m -4,0 C 51,72.3 50.3,73 49.5,73 48.7,73 48,72.3 48,71.5 48,70.7 48.7,70 49.5,70 c 0.8,0 1.5,0.7 1.5,1.5 z m -4,0 C 47,72.3 46.3,73 45.5,73 44.7,73 44,72.3 44,71.5 44,70.7 44.7,70 45.5,70 c 0.8,0 1.5,0.7 1.5,1.5 z m -4,0 C 43,72.3 42.3,73 41.5,73 40.7,73 40,72.3 40,71.5 40,70.7 40.7,70 41.5,70 c 0.8,0 1.5,0.7 1.5,1.5 z"
     id="path4"
     inkscape:connector-curvature="0" /></svg>