<?xml version="1.0" encoding="UTF-8" standalone="no"?>
<svg
   xmlns:dc="http://purl.org/dc/elements/1.1/"
   xmlns:cc="http://creativecommons.org/ns#"
   xmlns:rdf="http://www.w3.org/1999/02/22-rdf-syntax-ns#"
   xmlns:svg="http://www.w3.org/2000/svg"
   xmlns="http://www.w3.org/2000/svg"
   xmlns:sodipodi="http://sodipodi.sourceforge.net/DTD/sodipodi-0.dtd"
   xmlns:inkscape="http://www.inkscape.org/namespaces/inkscape"
   version="1.1"
   x="0px"
   y="0px"
   viewBox="0 0 45 60"
   xml:space="preserve"
   id="svg2"
   inkscape:version="0.91 r13725"
   sodipodi:docname="icon-health.svg"
   width="45"
   height="60"><metadata
     id="metadata14"><rdf:RDF><cc:Work
         rdf:about=""><dc:format>image/svg+xml</dc:format><dc:type
           rdf:resource="http://purl.org/dc/dcmitype/StillImage" /><dc:title></dc:title></cc:Work></rdf:RDF></metadata><defs
     id="defs12" /><sodipodi:namedview
     pagecolor="#ffffff"
     bordercolor="#666666"
     borderopacity="1"
     objecttolerance="10"
     gridtolerance="10"
     guidetolerance="10"
     inkscape:pageopacity="0"
     inkscape:pageshadow="2"
     inkscape:window-width="640"
     inkscape:window-height="480"
     id="namedview10"
     showgrid="false"
     fit-margin-top="0"
     fit-margin-left="0"
     fit-margin-right="0"
     fit-margin-bottom="0"
     inkscape:zoom="1.888"
     inkscape:cx="24.5"
     inkscape:cy="15.5"
     inkscape:window-x="0"
     inkscape:window-y="0"
     inkscape:window-maximized="0"
     inkscape:current-layer="svg2" /><path
     d="M 44,0 1,0 C 0.4,0 0,0.4 0,1 l 0,58 c 0,0.6 0.4,1 1,1 l 43,0 c 0.6,0 1,-0.4 1,-1 L 45,1 C 45,0.4 44.6,0 44,0 Z M 43,58 2,58 2,2 43,2 43,58 Z m -31.3,-34.8 6.8,0 0,6.8 c 0,0.6 0.4,1 1,1 l 6,0 c 0.6,0 1,-0.4 1,-1 l 0,-6.8 6.8,0 c 0.6,0 1,-0.4 1,-1 l 0,-5.9 c 0,-0.6 -0.4,-1 -1,-1 l -6.8,0 0,-6.8 c 0,-0.6 -0.4,-1 -1,-1 l -6,0 c -0.6,0 -1,0.4 -1,1 l 0,6.8 -6.8,0 c -0.6,0 -1,0.4 -1,1 l 0,5.9 c 0,0.6 0.5,1 1,1 z m 1,-5.9 6.8,0 c 0.6,0 1,-0.4 1,-1 l 0,-6.8 4,0 0,6.8 c 0,0.6 0.4,1 1,1 l 6.8,0 0,3.9 -6.8,0 c -0.6,0 -1,0.4 -1,1 l 0,6.8 -4,0 0,-6.8 c 0,-0.6 -0.4,-1 -1,-1 l -6.8,0 0,-3.9 z m 0.4,21.1 24.4,0 c 0.6,0 1,0.4 1,1 0,0.6 -0.4,1 -1,1 l -24.4,0 c -0.6,0 -1,-0.4 -1,-1 0,-0.6 0.5,-1 1,-1 z m -6.6,8.4 c 0,-0.6 0.4,-1 1,-1 l 30,0 c 0.6,0 1,0.4 1,1 0,0.6 -0.4,1 -1,1 l -30,0 c -0.5,0 -1,-0.4 -1,-1 z"
     id="path4"
     inkscape:connector-curvature="0" /></svg>